<svg width="64" height="64" viewBox="0 0 64 64" fill="none" xmlns="http://www.w3.org/2000/svg">
<rect width="64" height="64" rx="20" fill="#00ADEF"/>
<path d="M31.9998 12.304C36.2301 12.304 39.6594 15.7653 39.6594 20.0351C39.6594 21.3204 39.3479 22.532 38.7981 23.5984C40.168 22.3018 42.0102 21.5077 44.0363 21.5077C48.2666 21.5077 51.6959 24.9691 51.6959 29.2389C51.6959 33.5087 48.2666 36.9701 44.0363 36.9701C43.5599 36.9701 43.0938 36.9257 42.6415 36.8417C45.3903 38.0156 47.319 40.7629 47.319 43.965C47.319 48.2348 43.8897 51.6961 39.6594 51.6961C35.4291 51.6961 31.9998 48.2348 31.9998 43.965C31.9998 48.2348 28.5705 51.6961 24.3402 51.6961C20.1099 51.6961 16.6806 48.2348 16.6806 43.965C16.6806 40.763 18.6092 38.0156 21.3578 36.8417C20.9056 36.9257 20.4396 36.9701 19.9633 36.9701C15.733 36.9701 12.3037 33.5087 12.3037 29.2389C12.3037 24.9691 15.733 21.5077 19.9633 21.5077C21.9893 21.5077 23.8313 22.3019 25.2011 23.5984C24.6514 22.532 24.3402 21.3203 24.3402 20.0351C24.3402 15.7653 27.7695 12.304 31.9998 12.304Z" fill="white"/>
<circle cx="31.9997" cy="33.2888" r="7.73118" fill="#FCD205"/>
</svg>
